<svg width="105" height="53" viewBox="0 0 105 53" fill="none" xmlns="http://www.w3.org/2000/svg">
<g filter="url(#filter0_d_2755_4446)">
<path d="M27.6001 38.0002L34.4151 17.7002H29.3691L25.1641 32.0262L20.9591 17.7002H15.9131L22.7281 38.0002H27.6001Z" fill="black"/>
<path d="M48.7073 38.0002V34.2302H40.9933V29.7642H48.7073V26.0812H40.9933V21.4702H48.7073V17.7002H36.2953V38.0002H48.7073Z" fill="black"/>
<path d="M68.3306 25.0372C68.3306 20.7742 65.2856 17.7002 61.0516 17.7002H52.4096V38.0002H57.1076V32.3742H59.5726L62.7626 38.0002H68.0986L64.5316 31.5622C66.8516 30.4022 68.3306 27.9952 68.3306 25.0372ZM60.3266 21.5282C62.2116 21.5282 63.5746 23.0072 63.5746 25.0372C63.5746 27.0672 62.2116 28.5462 60.3266 28.5462H57.1076V21.5282H60.3266Z" fill="black"/>
<path d="M82.2619 27.6182C84.6109 27.1832 86.1479 25.6172 86.1479 22.9782C86.1479 19.7012 83.6539 17.7002 79.6229 17.7002H71.2709V38.0002H79.9419C83.9729 38.0002 86.4379 35.8542 86.4379 32.3742C86.4379 29.5612 84.6109 27.8502 82.2619 27.6182ZM78.5789 21.0932C80.4059 21.0932 81.4499 22.0212 81.4499 23.5582C81.4499 25.0952 80.3769 26.0232 78.5789 26.0232H75.9689V21.0932H78.5789ZM75.9689 34.4332V29.2712H78.8979C80.5799 29.2712 81.7109 30.2572 81.7109 31.7652C81.7109 33.4472 80.6379 34.4332 78.8979 34.4332H75.9689Z" fill="black"/>
</g>
<path d="M91.8472 17.0768L90.4049 20.88C90.3622 20.9918 90.2854 21.0882 90.1846 21.1562C90.0839 21.2243 89.9642 21.2608 89.8415 21.2608C89.7189 21.2608 89.5991 21.2243 89.4984 21.1562C89.3977 21.0882 89.3208 20.9918 89.2782 20.88L87.8359 17.0768C87.8055 16.9965 87.7575 16.9236 87.6952 16.8631C87.633 16.8027 87.5579 16.756 87.4753 16.7264L83.5617 15.3249C83.4467 15.2834 83.3475 15.2087 83.2775 15.1108C83.2075 15.0129 83.1699 14.8966 83.1699 14.7774C83.1699 14.6582 83.2075 14.5418 83.2775 14.4439C83.3475 14.3461 83.4467 14.2714 83.5617 14.2299L87.4753 12.8283C87.5579 12.7987 87.633 12.7521 87.6952 12.6916C87.7575 12.6311 87.8055 12.5582 87.8359 12.4779L89.2782 8.67471C89.3208 8.56295 89.3977 8.46656 89.4984 8.3985C89.5991 8.33043 89.7189 8.29395 89.8415 8.29395C89.9642 8.29395 90.0839 8.33043 90.1846 8.3985C90.2854 8.46656 90.3622 8.56295 90.4049 8.67471L91.8472 12.4779C91.8776 12.5582 91.9256 12.6311 91.9878 12.6916C92.0501 12.7521 92.1251 12.7987 92.2077 12.8283L96.1213 14.2299C96.2363 14.2714 96.3355 14.3461 96.4056 14.4439C96.4756 14.5418 96.5131 14.6582 96.5131 14.7774C96.5131 14.8966 96.4756 15.0129 96.4056 15.1108C96.3355 15.2087 96.2363 15.2834 96.1213 15.3249L92.2077 16.7264C92.1251 16.756 92.0501 16.8027 91.9878 16.8631C91.9256 16.9236 91.8776 16.9965 91.8472 17.0768V17.0768Z" fill="#72FFA2"/>
<path d="M95.0859 4.13379V8.16792" stroke="#72FFA2" stroke-linecap="round" stroke-linejoin="round"/>
<path d="M101.091 8.29395V12.3281" stroke="#72FFA2" stroke-linecap="round" stroke-linejoin="round"/>
<path d="M101.925 1V5.03413" stroke="#72FFA2" stroke-linecap="round" stroke-linejoin="round"/>
<path d="M97.161 6.15088H93.0098" stroke="#72FFA2" stroke-linecap="round" stroke-linejoin="round"/>
<path d="M103.166 10.3105H99.0146" stroke="#72FFA2" stroke-linecap="round" stroke-linejoin="round"/>
<path d="M104 3.01709H99.8486" stroke="#72FFA2" stroke-linecap="round" stroke-linejoin="round"/>
<defs>
<filter id="filter0_d_2755_4446" x="0.913086" y="2.7002" width="100.524" height="50.2998" filterUnits="userSpaceOnUse" color-interpolation-filters="sRGB">
<feFlood flood-opacity="0" result="BackgroundImageFix"/>
<feColorMatrix in="SourceAlpha" type="matrix" values="0 0 0 0 0 0 0 0 0 0 0 0 0 0 0 0 0 0 127 0" result="hardAlpha"/>
<feOffset/>
<feGaussianBlur stdDeviation="7.5"/>
<feComposite in2="hardAlpha" operator="out"/>
<feColorMatrix type="matrix" values="0 0 0 0 1 0 0 0 0 1 0 0 0 0 1 0 0 0 0.5 0"/>
<feBlend mode="normal" in2="BackgroundImageFix" result="effect1_dropShadow_2755_4446"/>
<feBlend mode="normal" in="SourceGraphic" in2="effect1_dropShadow_2755_4446" result="shape"/>
</filter>
</defs>
</svg>
